<!--?xml version="1.0" encoding="utf-8"?-->
<!-- Generator: Adobe Illustrator 15.1.0, SVG Export Plug-In . SVG Version: 6.00 Build 0)  -->

<svg version="1.1" id="_x32_" xmlns="http://www.w3.org/2000/svg" xmlns:xlink="http://www.w3.org/1999/xlink" x="0px" y="0px" width="512px" height="512px" viewBox="0 0 512 512" style="width: 256px; height: 256px; opacity: 1;" xml:space="preserve">
<style type="text/css">

	.st0{fill:#4B4B4B;}

</style>
<g>
	<path class="st0" d="M331.992,347.438c0.016-4.047,0.828-7.969,2.563-12.391c3-7.734,9.359-16.859,17.938-27.078
		c12.797-15.406,30.281-32.906,45.047-55.313c7.344-11.188,14-23.703,18.797-37.797c4.813-14.078,7.688-29.75,7.672-46.859
		C423.992,75.219,348.805,0,255.992,0c-92.781,0-167.984,75.219-168,168c-0.031,26.094,6.766,48.719,16.578,67.75
		c14.766,28.563,35.625,49.625,51.141,67.766c7.813,9.016,14.266,17.266,18.359,24.578c4.125,7.359,5.906,13.344,5.922,19.344
		h39.891c0.016-9.656-2.078-18.813-5.344-27.094c-5.813-14.5-14.875-26.5-24.453-37.984c-14.422-17.172-30.375-33.422-42.266-51.578
		c-5.953-9.078-10.891-18.531-14.375-28.781s-5.547-21.313-5.547-34c0-35.438,14.297-67.344,37.516-90.594
		c23.25-23.219,55.141-37.5,90.578-37.516c35.438,0.016,67.328,14.297,90.594,37.516c23.219,23.25,37.516,55.156,37.531,90.594
		c-0.047,19.313-4.75,34.953-12.188,49.516c-11.109,21.797-29.047,40.578-45.875,59.953c-8.375,9.734-16.469,19.688-22.891,31.031
		c-6.375,11.25-11.078,24.375-11.063,38.938H331.992z" style="fill: rgb(75, 75, 75);"></path>
	<line class="st0" x1="195.227" y1="396.063" x2="309.555" y2="396.063" style="fill: rgb(75, 75, 75);"></line>
	<path class="st0" d="M195.227,412.031h114.328c8.813,0,15.969-7.156,15.969-15.969s-7.156-15.969-15.969-15.969H195.227
		c-8.797,0-15.953,7.156-15.953,15.969S186.43,412.031,195.227,412.031" style="fill: rgb(75, 75, 75);"></path>
	<line class="st0" x1="195.227" y1="448.672" x2="309.555" y2="448.672" style="fill: rgb(75, 75, 75);"></line>
	<path class="st0" d="M195.227,464.625h114.328c8.813,0,15.969-7.156,15.969-15.953c0-8.813-7.156-15.953-15.969-15.953H195.227
		c-8.797,0-15.953,7.141-15.953,15.953C179.273,457.469,186.43,464.625,195.227,464.625" style="fill: rgb(75, 75, 75);"></path>
	<path class="st0" d="M216.852,490.563c6.906,12.75,20.406,21.438,35.922,21.438c15.531,0,29.031-8.688,35.906-21.438H216.852z" style="fill: rgb(75, 75, 75);"></path>
</g>
</svg>
