<!--?xml version="1.0" encoding="utf-8"?-->
<!-- Generator: Adobe Illustrator 18.1.1, SVG Export Plug-In . SVG Version: 6.00 Build 0)  -->

<svg version="1.1" id="_x32_" xmlns="http://www.w3.org/2000/svg" xmlns:xlink="http://www.w3.org/1999/xlink" x="0px" y="0px" viewBox="0 0 512 512" style="width: 256px; height: 256px; opacity: 1;" xml:space="preserve">
<style type="text/css">
	.st0{fill:#4B4B4B;}
</style>
<g>
	<path class="st0" d="M328.271,272.025l13.57,23.952c8.202-7.241,15.491-15.54,21.648-24.634
		c13.994-20.677,22.186-45.686,22.186-72.482c0-17.835-3.64-34.92-10.219-50.43c-9.863-23.29-26.306-43.064-46.982-57.048
		C307.786,77.39,282.786,69.206,256,69.206c-17.844,0-34.92,3.64-50.44,10.2c-23.28,9.873-43.064,26.305-57.048,47.002
		c-13.992,20.668-22.185,45.678-22.185,72.453c0,17.864,3.64,34.939,10.218,50.45c7.626,18.008,19.199,33.892,33.614,46.666
		l13.57-23.972c-4.85-4.773-9.22-10.016-13.033-15.664c-11.112-16.451-17.585-36.159-17.595-57.48
		c0-14.204,2.882-27.698,8.097-39.991c7.808-18.44,20.898-34.191,37.331-45.302c16.442-11.122,36.159-17.585,57.47-17.595
		c14.205,0,27.698,2.89,39.991,8.087c18.44,7.808,34.209,20.898,45.312,37.34c11.111,16.452,17.584,36.16,17.594,57.461
		c-0.01,14.214-2.89,27.698-8.096,40.001C345.52,251.347,337.808,262.594,328.271,272.025z" style="fill: rgb(75, 75, 75);"></path>
	<path class="st0" d="M439.206,121.52c-15.126-35.698-40.346-66.038-72.078-87.503C335.406,12.563,297.096,0,256,0
		c-27.381,0-53.562,5.58-77.35,15.674c-35.688,15.116-66.038,40.336-87.503,72.068c-21.455,31.722-34.018,70.042-34.008,111.118
		c-0.01,27.4,5.57,53.572,15.654,77.36c13.629,32.135,35.43,59.94,62.802,80.818l13.349-23.568
		c-13.724-10.949-25.768-23.904-35.612-38.474c-18.584-27.486-29.417-60.515-29.417-96.136c0-23.74,4.821-46.32,13.532-66.891
		c13.071-30.858,34.939-57.193,62.416-75.758C187.36,37.629,220.38,26.795,256,26.776c23.752,0,46.33,4.821,66.902,13.551
		c30.848,13.051,57.182,34.92,75.766,62.426c18.584,27.477,29.417,60.505,29.417,96.107c0,23.76-4.822,46.33-13.532,66.911
		c-11.285,26.632-29.139,49.894-51.488,67.709l13.34,23.558c17.239-13.148,32.269-29.042,44.447-47.04
		c21.456-31.722,34.018-70.042,34.008-111.138C454.871,171.49,449.291,145.319,439.206,121.52z" style="fill: rgb(75, 75, 75);"></path>
	<path class="st0" d="M267.823,244.855c21.84-5.34,38.099-24.894,38.099-48.376c0-27.564-22.349-49.921-49.922-49.921
		c-27.573,0-49.921,22.358-49.921,49.921c0,23.482,16.259,43.036,38.099,48.376v10.592L122.946,469.647l20.572,11.65l35.535-62.792
		l65.125,26.142V512h23.645v-67.362l65.124-26.132l35.535,62.792l20.572-11.65L267.823,255.448V244.855z M244.178,419.158
		l-53.37-21.416l53.37-94.292V419.158z M321.192,397.742l-53.369,21.416V303.449L321.192,397.742z" style="fill: rgb(75, 75, 75);"></path>
</g>
</svg>
