<!--?xml version="1.0" encoding="utf-8"?-->
<!-- Generator: Adobe Illustrator 15.1.0, SVG Export Plug-In . SVG Version: 6.00 Build 0)  -->

<svg version="1.1" id="_x32_" xmlns="http://www.w3.org/2000/svg" xmlns:xlink="http://www.w3.org/1999/xlink" x="0px" y="0px" width="512px" height="512px" viewBox="0 0 512 512" style="width: 256px; height: 256px; opacity: 1;" xml:space="preserve">
<style type="text/css">

	.st0{fill:#4B4B4B;}

</style>
<g>
	<path class="st0" d="M311.406,149.531c20.156,20.156,118.719,92.188,118.719,188.344S352.172,512,256,512
		c-96.156,0-174.125-77.969-174.125-174.125s98.563-168.188,118.719-188.344H311.406z" style="fill: rgb(75, 75, 75);"></path>
	<path class="st0" d="M311.406,97.125c0,0,5.125-17.594,32.75-39.906c26.5-21.406,6.156-50.969-32.75-40.063
		C284.547,24.656,293.672,0,256,0s-28.547,24.656-55.406,17.156c-38.891-10.906-59.234,18.656-32.734,40.063
		c27.609,22.313,32.734,39.906,32.734,39.906H311.406z" style="fill: rgb(75, 75, 75);"></path>
	<path class="st0" d="M323.891,123.328c0,6.297-5.109,11.406-11.391,11.406H199.516c-6.297,0-11.406-5.109-11.406-11.406l0,0
		c0-6.297,5.109-11.391,11.406-11.391H312.5C318.781,111.938,323.891,117.031,323.891,123.328L323.891,123.328z" style="fill: rgb(75, 75, 75);"></path>
</g>
</svg>
