<!--?xml version="1.0" encoding="utf-8"?-->
<!-- Generator: Adobe Illustrator 15.1.0, SVG Export Plug-In . SVG Version: 6.00 Build 0)  -->

<svg version="1.1" id="_x32_" xmlns="http://www.w3.org/2000/svg" xmlns:xlink="http://www.w3.org/1999/xlink" x="0px" y="0px" width="512px" height="512px" viewBox="0 0 512 512" style="width: 256px; height: 256px; opacity: 1;" xml:space="preserve">
<style type="text/css">

	.st0{fill:#4B4B4B;}

</style>
<g>
	<path class="st0" d="M200.391,417.883c0.172-7.188-5.734-36.281,7.375-55.453c46.141-46.141,138.891-138.891,149.922-149.922
		c14.734-14.75,55.641-19.125,63.75-20.219c18.188-2.453,35.844-10.109,50.688-23.094c26.938-23.625,37.625-58.906,31.125-91.703
		c-1.375-6.875-3.281-10.359-3.281-10.359c-0.578-1.859-2.188-3.234-4.094-3.531c-1.938-0.313-3.859,0.5-4.984,2.094l-5.109,7.125
		l-28.844,40.516c-5.578,7.781-16.938,9.203-25.406,3.172l-48.563-34.75c-8.438-6.063-10.781-17.281-5.219-25.063l29.531-41.484
		l4.844-6.781c1.125-1.578,1.281-3.641,0.391-5.375c-0.906-1.719-2.703-2.781-4.641-2.75c0,0-4.563-0.781-11.906,0.156
		c-18.422,2.344-36.375,10.016-51.406,23.188c-21.188,18.563-32.313,44.344-32.938,70.453c-0.188,7.188,5.719,36.297-7.375,55.469
		c-46.125,46.125-138.891,138.875-149.906,149.906c-14.781,14.75-55.656,19.125-63.781,20.234
		c-18.172,2.453-35.844,10.094-50.672,23.078C12.938,366.414,2.25,401.695,8.75,434.492c1.375,6.891,3.281,10.375,3.281,10.375
		c0.594,1.859,2.172,3.219,4.094,3.531c1.938,0.297,3.844-0.5,5-2.094l5.094-7.141l28.844-40.516
		c5.563-7.781,16.938-9.203,25.406-3.156l48.563,34.75c8.453,6.047,10.797,17.266,5.219,25.063l-29.531,41.469l-4.844,6.781
		c-1.125,1.578-1.281,3.656-0.375,5.375s2.688,2.781,4.625,2.766c0,0,4.563,0.781,11.906-0.156
		c18.422-2.359,36.375-10.031,51.406-23.188C188.625,469.773,199.766,443.992,200.391,417.883z" style="fill: rgb(75, 75, 75);"></path>
</g>
</svg>
